<svg version="1.2" xmlns="http://www.w3.org/2000/svg" viewBox="0 0 313 479" width="313" height="479">
	<title>laser-pointer-svg</title>
	<defs>
		<filter x="-50%" y="-50%" width="200%" height="200%" id="f1"> <feGaussianBlur stdDeviation="5.7"/> </filter>
		<linearGradient id="g1" x2="1" gradientUnits="userSpaceOnUse" gradientTransform="matrix(5.06,8.306,-0.112,.068,255.311,21.259)">
			<stop offset="0" stop-color="#81ccfb"/>
			<stop offset=".3" stop-color="#ffffff"/>
			<stop offset=".7" stop-color="#ffffff"/>
			<stop offset="1" stop-color="#81ccfb"/>
		</linearGradient>
		<linearGradient id="g2" x2="1" gradientUnits="userSpaceOnUse" gradientTransform="matrix(2.308,-1.406,3.148,5.168,31.257,24.744)">
			<stop offset="0" stop-color="#81ccfb" stop-opacity="0"/>
			<stop offset="1" stop-color="#81ccfb" stop-opacity="1"/>
		</linearGradient>
		<linearGradient id="g3" x2="1" gradientUnits="userSpaceOnUse" gradientTransform="matrix(-8.706,-14.291,7.217,-4.397,303.152,453.745)">
			<stop offset="0" stop-color="#000000" stop-opacity="1"/>
			<stop offset=".035" stop-color="#000000" stop-opacity="1"/>
			<stop offset=".087" stop-color="#434343" stop-opacity="1"/>
			<stop offset=".183" stop-color="#686868" stop-opacity="1"/>
			<stop offset=".257" stop-color="#030303" stop-opacity="1"/>
			<stop offset=".333" stop-color="#6a6a6b" stop-opacity="1"/>
			<stop offset=".412" stop-color="#828283" stop-opacity="1"/>
			<stop offset=".491" stop-color="#1d1d21" stop-opacity="1"/>
			<stop offset=".572" stop-color="#8f8f9e" stop-opacity="1"/>
			<stop offset=".682" stop-color="#a1a1aa" stop-opacity="1"/>
			<stop offset=".742" stop-color="#62616b" stop-opacity="1"/>
			<stop offset=".786" stop-color="#9e9ca3" stop-opacity="1"/>
			<stop offset=".921" stop-color="#bababe" stop-opacity=".82"/>
			<stop offset="1" stop-color="#1a1923" stop-opacity="1"/>
		</linearGradient>
		<linearGradient id="g4" x2="1" gradientUnits="userSpaceOnUse" gradientTransform="matrix(-6.694,-10.988,4.516,-2.751,276.24,411.953)">
			<stop offset="0" stop-color="#23272e"/>
			<stop offset=".506" stop-color="#f4faff"/>
			<stop offset=".711" stop-color="#ffffff"/>
			<stop offset="1" stop-color="#97a3b9"/>
		</linearGradient>
		<radialGradient id="g5" cx="0" cy="0" r="1" gradientUnits="userSpaceOnUse" gradientTransform="matrix(5.693,-3.468,3.468,5.693,271.984,427.716)">
			<stop offset="0" stop-color="#000000"/>
			<stop offset="1" stop-color="#000000"/>
		</radialGradient>
		<linearGradient id="g6" x2="1" gradientUnits="userSpaceOnUse" gradientTransform="matrix(-5.061,-8.308,39.42,-24.015,283.263,446.23)">
			<stop offset="0" stop-color="#23272e"/>
			<stop offset=".506" stop-color="#f4faff"/>
			<stop offset=".711" stop-color="#ffffff"/>
			<stop offset="1" stop-color="#97a3b9"/>
		</linearGradient>
		<linearGradient id="g7" x2="1" gradientUnits="userSpaceOnUse" gradientTransform="matrix(3.594,-2.189,.461,.757,273.741,439.016)">
			<stop offset="0" stop-color="#c8c5c4" stop-opacity="1"/>
			<stop offset=".5" stop-color="#c8c5c4" stop-opacity="0"/>
			<stop offset=".75" stop-color="#c8c5c4" stop-opacity="0"/>
			<stop offset="1" stop-color="#c8c5c4" stop-opacity="1"/>
		</linearGradient>
		<linearGradient id="g8" x2="1" gradientUnits="userSpaceOnUse" gradientTransform="matrix(-5.061,-8.308,39.42,-24.015,281.734,443.721)">
			<stop offset="0" stop-color="#23272e"/>
			<stop offset=".506" stop-color="#f4faff"/>
			<stop offset=".711" stop-color="#ffffff"/>
			<stop offset="1" stop-color="#97a3b9"/>
		</linearGradient>
		<linearGradient id="g9" x2="1" gradientUnits="userSpaceOnUse" gradientTransform="matrix(-3.594,2.189,-0.461,-0.757,275.806,434.318)">
			<stop offset="0" stop-color="#c8c5c4" stop-opacity="1"/>
			<stop offset=".5" stop-color="#c8c5c4" stop-opacity="0"/>
			<stop offset=".75" stop-color="#c8c5c4" stop-opacity="0"/>
			<stop offset="1" stop-color="#c8c5c4" stop-opacity="1"/>
		</linearGradient>
		<linearGradient id="g10" x2="1" gradientUnits="userSpaceOnUse" gradientTransform="matrix(-5.061,-8.308,39.42,-24.015,280.206,441.213)">
			<stop offset="0" stop-color="#23272e"/>
			<stop offset=".506" stop-color="#f4faff"/>
			<stop offset=".711" stop-color="#ffffff"/>
			<stop offset="1" stop-color="#97a3b9"/>
		</linearGradient>
		<linearGradient id="g11" x2="1" gradientUnits="userSpaceOnUse" gradientTransform="matrix(3.594,-2.189,.461,.757,270.684,433.999)">
			<stop offset="0" stop-color="#c8c5c4" stop-opacity="1"/>
			<stop offset=".5" stop-color="#c8c5c4" stop-opacity="0"/>
			<stop offset=".75" stop-color="#c8c5c4" stop-opacity="0"/>
			<stop offset="1" stop-color="#c8c5c4" stop-opacity="1"/>
		</linearGradient>
		<linearGradient id="g12" x2="1" gradientUnits="userSpaceOnUse" gradientTransform="matrix(-5.061,-8.308,39.42,-24.015,278.678,438.704)">
			<stop offset="0" stop-color="#23272e"/>
			<stop offset=".506" stop-color="#f4faff"/>
			<stop offset=".711" stop-color="#ffffff"/>
			<stop offset="1" stop-color="#97a3b9"/>
		</linearGradient>
		<linearGradient id="g13" x2="1" gradientUnits="userSpaceOnUse" gradientTransform="matrix(-3.594,2.189,-0.461,-0.757,272.75,429.301)">
			<stop offset="0" stop-color="#c8c5c4" stop-opacity="1"/>
			<stop offset=".5" stop-color="#c8c5c4" stop-opacity="0"/>
			<stop offset=".75" stop-color="#c8c5c4" stop-opacity="0"/>
			<stop offset="1" stop-color="#c8c5c4" stop-opacity="1"/>
		</linearGradient>
		<linearGradient id="g14" x2="1" gradientUnits="userSpaceOnUse" gradientTransform="matrix(-3.074,-5.045,34.208,-20.84,267.044,416.204)">
			<stop offset="0" stop-color="#4e5766"/>
			<stop offset=".449" stop-color="#1c202a"/>
			<stop offset=".752" stop-color="#7d8a9c"/>
			<stop offset="1" stop-color="#b0b6b7"/>
		</linearGradient>
		<linearGradient id="g15" x2="1" gradientUnits="userSpaceOnUse" gradientTransform="matrix(-1.544,.94,-0.139,-0.228,268.696,415.96)">
			<stop offset="0" stop-color="#c8c5c4" stop-opacity=".39"/>
			<stop offset=".173" stop-color="#c8c5c4" stop-opacity="0"/>
			<stop offset=".8" stop-color="#c8c5c4" stop-opacity="0"/>
			<stop offset="1" stop-color="#c8c5c4" stop-opacity=".39"/>
		</linearGradient>
		<filter x="-50%" y="-50%" width="200%" height="200%" id="f2"> <feGaussianBlur stdDeviation=".8"/> </filter>
		<linearGradient id="g16" x2="1" gradientUnits="userSpaceOnUse" gradientTransform="matrix(1.635,2.684,-0.588,.358,270.544,404.383)">
			<stop offset="0" stop-color="#111317"/>
			<stop offset=".506" stop-color="#373737"/>
			<stop offset=".711" stop-color="#3d3d3d"/>
			<stop offset="1" stop-color="#303030"/>
		</linearGradient>
		<linearGradient id="g17" x2="1" gradientUnits="userSpaceOnUse" gradientTransform="matrix(-3.074,-5.045,34.208,-20.84,265.008,412.861)">
			<stop offset="0" stop-color="#4e5766"/>
			<stop offset=".449" stop-color="#1c202a"/>
			<stop offset=".752" stop-color="#7d8a9c"/>
			<stop offset="1" stop-color="#b0b6b7"/>
		</linearGradient>
		<linearGradient id="g18" x2="1" gradientUnits="userSpaceOnUse" gradientTransform="matrix(-1.544,.94,-0.139,-0.228,266.659,412.617)">
			<stop offset="0" stop-color="#c8c5c4" stop-opacity=".39"/>
			<stop offset=".173" stop-color="#c8c5c4" stop-opacity="0"/>
			<stop offset=".8" stop-color="#c8c5c4" stop-opacity="0"/>
			<stop offset="1" stop-color="#c8c5c4" stop-opacity=".39"/>
		</linearGradient>
		<linearGradient id="g19" x2="1" gradientUnits="userSpaceOnUse" gradientTransform="matrix(-7.247,-11.897,13.073,-7.964,269.915,436.962)">
			<stop offset="0" stop-color="#c8c5c4" stop-opacity=".39"/>
			<stop offset=".173" stop-color="#c8c5c4" stop-opacity="0"/>
			<stop offset=".529" stop-color="#c8c5c4" stop-opacity="0"/>
			<stop offset="1" stop-color="#c8c5c4" stop-opacity=".39"/>
		</linearGradient>
		<linearGradient id="g20" x2="1" gradientUnits="userSpaceOnUse" gradientTransform="matrix(-10.391,-17.057,13.014,-7.928,256.337,411.085)">
			<stop offset="0" stop-color="#c8c5c4" stop-opacity=".39"/>
			<stop offset=".173" stop-color="#c8c5c4" stop-opacity="0"/>
			<stop offset=".503" stop-color="#c8c5c4" stop-opacity="0"/>
			<stop offset="1" stop-color="#c8c5c4" stop-opacity=".39"/>
		</linearGradient>
		<linearGradient id="g21" x2="1" gradientUnits="userSpaceOnUse" gradientTransform="matrix(7.48,-4.557,5.848,9.599,279.178,457.876)">
			<stop offset="0" stop-color="#313131" stop-opacity="1"/>
			<stop offset="1" stop-color="#b8b5b3" stop-opacity="0"/>
		</linearGradient>
	</defs>
	<style>
		.s0 { opacity: .7;filter: url(#f1);fill: #00c0ff } 
		.s1 { fill: url(#g1) } 
		.s2 { fill: url(#g2) } 
		.s3 { fill: url(#g3) } 
		.s4 { fill: url(#g4) } 
		.s5 { fill: url(#g5) } 
		.s6 { fill: #000000 } 
		.s7 { fill: url(#g6) } 
		.s8 { fill: url(#g7) } 
		.s9 { fill: url(#g8) } 
		.s10 { fill: url(#g9) } 
		.s11 { fill: url(#g10) } 
		.s12 { fill: url(#g11) } 
		.s13 { fill: url(#g12) } 
		.s14 { fill: url(#g13) } 
		.s15 { fill: url(#g14) } 
		.s16 { fill: url(#g15) } 
		.s17 { fill: #ea0017 } 
		.s18 { filter: url(#f2);fill: #ea0017 } 
		.s19 { fill: url(#g16) } 
		.s20 { fill: url(#g17) } 
		.s21 { fill: url(#g18) } 
		.s22 { fill: url(#g19) } 
		.s23 { fill: url(#g20) } 
		.s24 { fill: url(#g21) } 
	</style>
	<g id="layer1">
		<g id="g3675">
		</g>
		<path id="path3640" class="s0" d="m245.6 409.3c18.9 31 40.6 16.7 22.2-13.5l-227.3-373-6-9.8c0 0-11.5 0.2-14.1 1.8-2.6 1.5-8.1 11.7-8.1 11.7l6 9.8z"/>
		<path id="path2830" class="s1" d="m254.2 404.2l5.1-3.1-231.1-379.4c0 0-1.1-1.7-3.7-0.1-2.5 1.5-1.5 3.2-1.5 3.2z"/>
		<path id="path3620" class="s2" d="m29 34.6l5.1-3.1-5.9-9.8c0 0-1.1-1.7-3.7-0.1-2.5 1.5-1.5 3.2-1.5 3.2z"/>
		<path id="rect2830" class="s3" d="m288.9 469.2c0.7 1.1 3.9 0.3 7.3-1.7 3.4-2.1 5.6-4.6 4.9-5.7l-3.4-5.7q-0.1 0-0.2-0.1 0 0 0-0.1-0.1-0.1-0.1-0.2l-8.6-14.1c-0.7-1.1-2.1-1.5-3.2-0.8l-8.2 5c-1.1 0.7-1.5 2.1-0.8 3.2l8.6 14.1q0.1 0.1 0.2 0.2 0 0.2 0.1 0.3c0 0 3.4 5.6 3.4 5.6z"/>
		<path id="rect3691" class="s4" d="m252.9 406.4l13.3 21.8 8.9-5.4-13.3-21.8z"/>
		<path id="rect2832" class="s5" d="m271.2 435.8c-1.1 0.6-2.5 0.3-3.1-0.8l-4.4-7.2c-0.7-1-0.3-2.5 0.8-3.1l8.2-5.1c1.1-0.6 2.5-0.3 3.2 0.8l4.4 7.2c0.6 1.1 0.3 2.5-0.8 3.1z"/>
		<path id="rect2837" class="s6" d="m252.1 408.8c0.6 1.1 2.1 1.4 3.2 0.8l8.2-5.1c1.1-0.7 1.4-2.1 0.8-3.2l-7.4-12c-0.6-1.1-2-1.4-3.1-0.8l-4.7 15.4z"/>
		<g id="g3655">
			<path id="rect2842" class="s7" d="m274.8 445.7c0.7 1.2 2 0.5 2 0.5l9.4-5.7c0 0 1.2-0.9 0.5-2-0.7-1.2-2.1-0.5-2.1-0.5l-9.3 5.7c0 0-1.2 0.8-0.5 2z"/>
			<path id="path3635" class="s8" d="m274.8 445.7c0.7 1.2 2 0.5 2 0.5l9.4-5.7c0 0 1.2-0.9 0.5-2-0.7-1.2-2.1-0.5-2.1-0.5l-9.3 5.7c0 0-1.2 0.8-0.5 2z"/>
		</g>
		<g id="g3655">
			<path id="rect2842" class="s9" d="m273.3 443.2c-0.8-1.2 0.5-2 0.5-2l9.3-5.7c0 0 1.3-0.7 2.1 0.4 0.7 1.2-0.6 2.1-0.6 2.1l-9.3 5.7c0 0-1.3 0.7-2-0.5z"/>
			<path id="path3635" class="s10" d="m273.3 443.2c-0.8-1.2 0.5-2 0.5-2l9.3-5.7c0 0 1.3-0.7 2.1 0.4 0.7 1.2-0.6 2.1-0.6 2.1l-9.3 5.7c0 0-1.3 0.7-2-0.5z"/>
		</g>
		<g id="g3655">
			<path id="rect2842" class="s11" d="m271.7 440.7c0.7 1.2 2.1 0.5 2.1 0.5l9.3-5.7c0 0 1.3-0.9 0.5-2.1-0.7-1.2-2-0.4-2-0.4l-9.4 5.6c0 0-1.2 0.9-0.5 2.1z"/>
			<path id="path3635" class="s12" d="m271.7 440.7c0.7 1.2 2.1 0.5 2.1 0.5l9.3-5.7c0 0 1.3-0.9 0.5-2.1-0.7-1.2-2-0.4-2-0.4l-9.4 5.6c0 0-1.2 0.9-0.5 2.1z"/>
		</g>
		<g id="g3655">
			<path id="rect2842" class="s13" d="m270.2 438.2c-0.7-1.2 0.5-2.1 0.5-2.1l9.4-5.6c0 0 1.3-0.8 2 0.4 0.7 1.2-0.5 2.1-0.5 2.1l-9.4 5.6c0 0-1.3 0.8-2-0.4z"/>
			<path id="path3635" class="s14" d="m270.2 438.2c-0.7-1.2 0.5-2.1 0.5-2.1l9.4-5.6c0 0 1.3-0.8 2 0.4 0.7 1.2-0.5 2.1-0.5 2.1l-9.4 5.6c0 0-1.3 0.8-2-0.4z"/>
		</g>
		<g id="g3747">
			<path id="rect3715" class="s15" d="m260.8 415.6l0.6 1.1 7.3-4.5-0.7-1z"/>
			<path id="rect5553" class="s16" d="m260.8 415.6l0.6 1.1 7.3-4.5-0.7-1z"/>
			<path id="path3729" class="s17" d="m260.4 415.1c0.3-0.2 0.8-0.3 1.1-0.2 0.4 0 0.7 0.2 0.9 0.5 0.1 0.2 0.1 0.6 0 0.9-0.1 0.4-0.4 0.7-0.7 0.9-0.4 0.2-0.8 0.3-1.1 0.3-0.4-0.1-0.7-0.3-0.9-0.5-0.1-0.3-0.2-0.7 0-1 0.1-0.4 0.4-0.7 0.7-0.9z"/>
			<path id="path6039" class="s18" d="m260.2 414.9c0.5-0.3 1-0.4 1.4-0.4 0.5 0.1 0.9 0.3 1.1 0.7 0.2 0.3 0.2 0.7 0.1 1.2-0.2 0.4-0.5 0.8-1 1.1-0.4 0.2-0.9 0.3-1.4 0.3-0.4-0.1-0.8-0.3-1-0.6-0.2-0.4-0.2-0.8-0.1-1.3 0.2-0.4 0.5-0.8 0.9-1z"/>
		</g>
		<path id="rect3743" class="s19" d="m265.7 405.1c0.5-0.3 1.2-0.1 1.5 0.4l4.1 6.8c0.3 0.5 0.2 1.2-0.4 1.5-0.5 0.3-1.2 0.1-1.5-0.4l-4.1-6.7c-0.3-0.6-0.2-1.2 0.4-1.6z"/>
		<g id="g3747">
			<path id="rect3715" class="s20" d="m258.7 412.2l0.7 1.1 7.3-4.4-0.7-1.1z"/>
			<path id="rect5553" class="s21" d="m258.7 412.2l0.7 1.1 7.3-4.4-0.7-1.1z"/>
			<path id="path3729" class="s17" d="m258.4 411.8c0.3-0.2 0.7-0.3 1.1-0.3 0.3 0.1 0.6 0.2 0.8 0.5 0.2 0.3 0.2 0.6 0.1 1-0.1 0.3-0.4 0.7-0.8 0.9-0.3 0.2-0.7 0.3-1.1 0.2-0.3 0-0.6-0.2-0.8-0.5-0.2-0.3-0.2-0.6-0.1-1 0.1-0.3 0.4-0.6 0.8-0.8z"/>
			<path id="path6039" class="s18" d="m258.2 411.5c0.4-0.2 0.9-0.4 1.4-0.3 0.5 0.1 0.8 0.3 1 0.6 0.2 0.4 0.3 0.8 0.1 1.2-0.1 0.5-0.5 0.9-0.9 1.1-0.4 0.3-0.9 0.4-1.4 0.3-0.4 0-0.8-0.2-1-0.6-0.2-0.3-0.3-0.8-0.1-1.2 0.1-0.4 0.5-0.8 0.9-1.1z"/>
		</g>
		<path id="rect3852" class="s22" d="m271.2 435.8c-1.1 0.6-2.5 0.3-3.1-0.8l-4.4-7.2c-0.7-1-0.3-2.5 0.8-3.1l8.2-5.1c1.1-0.6 2.5-0.3 3.2 0.8l4.4 7.2c0.6 1.1 0.3 2.5-0.8 3.1z"/>
		<path id="rect3894" class="s23" d="m252.1 408.8q0.1 0.2 0.3 0.4c0.3 0.3 0.7 0.5 1.1 0.6q0.4 0.1 0.9 0.1 0 0 0 0c0.1-0.1 0.3-0.1 0.4-0.1q0 0 0.1 0 0.2-0.1 0.3-0.2 0.1-0.1 0.1-0.1l8.2-5q0.6-0.4 0.9-1 0 0 0 0 0.1-0.2 0.2-0.4 0-0.2 0-0.4 0 0 0-0.1c0-0.4 0-0.8-0.3-1.2q0 0 0-0.1l-7.3-12c-0.7-1.1-2.1-1.4-3.2-0.8l-4.7 15.4c0 0 3 4.9 3 4.9z"/>
		<path id="path3977" class="s24" d="m288.9 469.2c0.7 1.1 3.9 0.3 7.3-1.7 3.4-2.1 5.6-4.6 4.9-5.7l-8.3-13.7-12.2 7.4z"/>
	</g>
</svg>